<?xml version="1.0" standalone="no"?>
<!DOCTYPE svg PUBLIC "-//W3C//DTD SVG 20010904//EN"
 "http://www.w3.org/TR/2001/REC-SVG-20010904/DTD/svg10.dtd">
<svg version="1.0" xmlns="http://www.w3.org/2000/svg"
 width="512.000000pt" height="512.000000pt" viewBox="0 0 512.000000 512.000000"
 preserveAspectRatio="xMidYMid meet">
<metadata>
Created by potrace 1.14, written by Peter Selinger 2001-2017
</metadata>
<g transform="translate(0.000000,512.000000) scale(0.100000,-0.100000)"
fill="#000000" stroke="none">
<path d="M3917 4083 c-4 -3 -17 -7 -29 -8 -113 -13 -212 -38 -298 -78 -57 -26
-200 -119 -200 -129 0 -4 -4 -8 -10 -8 -5 0 -26 -16 -46 -35 -19 -19 -37 -35
-39 -35 -1 0 -27 23 -56 52 -112 107 -293 201 -413 215 -22 2 -44 7 -48 9 -9
6 -201 5 -238 -1 -14 -2 -35 -6 -47 -9 -13 -4 -33 -8 -44 -11 -111 -24 -277
-116 -384 -213 -77 -70 -67 -69 -132 -4 -100 100 -184 154 -308 197 -46 16
-63 20 -120 28 -12 2 -25 5 -30 8 -14 6 -143 3 -185 -4 -19 -4 -48 -8 -65 -11
-43 -7 -129 -38 -207 -75 -124 -59 -305 -213 -443 -376 -27 -33 -59 -69 -70
-81 -11 -12 -45 -56 -75 -98 -30 -42 -58 -76 -62 -76 -5 0 -8 -4 -8 -10 0 -11
-71 -113 -82 -118 -5 -2 -8 -8 -8 -14 0 -14 -32 -82 -43 -89 -5 -3 -8 -10 -7
-15 0 -5 -7 -40 -17 -79 -34 -135 -16 -297 49 -433 52 -110 173 -234 281 -288
63 -32 61 -30 51 -45 -4 -7 -9 -27 -11 -44 -2 -16 -6 -43 -8 -60 -2 -16 -4
-30 -5 -30 -7 0 -22 -164 -21 -225 0 -56 15 -195 21 -195 1 0 4 -13 6 -30 5
-31 73 -206 83 -215 3 -3 12 -17 20 -33 8 -15 18 -27 23 -27 4 0 8 -6 8 -14 0
-17 158 -176 175 -176 7 0 15 -7 19 -15 3 -8 11 -15 17 -15 7 0 20 -6 28 -14
18 -15 159 -77 186 -81 6 -1 17 -5 25 -8 60 -23 298 -31 370 -12 14 3 38 8 53
11 67 12 260 105 314 151 80 68 76 67 114 32 19 -17 52 -42 74 -57 22 -15 42
-30 45 -33 7 -9 157 -80 178 -84 9 -1 35 -8 58 -14 55 -15 138 -24 204 -24 88
1 165 7 170 15 3 3 19 8 35 11 42 8 108 28 120 36 6 4 26 14 45 21 44 18 128
70 203 128 l59 45 51 -50 c55 -53 120 -99 177 -126 59 -26 94 -41 105 -42 6 0
16 -4 23 -8 6 -5 12 -6 12 -3 0 2 21 -1 48 -8 61 -16 220 -11 297 9 33 8 68
17 79 20 36 8 176 84 237 127 34 24 115 97 180 163 128 130 127 129 179 195
19 25 37 47 40 50 14 13 117 158 133 187 25 46 58 144 51 154 -3 5 0 9 6 9 17
0 12 265 -6 315 -8 22 -16 47 -18 56 -8 32 -72 144 -101 175 -16 18 -41 44
-54 58 l-24 26 21 47 c11 27 32 80 46 118 13 39 28 79 32 90 4 11 8 25 10 32
1 6 7 27 13 45 6 18 13 49 15 68 3 19 8 46 11 60 15 63 18 102 18 203 -1 59
-4 115 -8 125 -8 17 -9 22 -20 82 -15 83 -94 244 -149 303 -14 15 -26 32 -26
38 0 5 -3 9 -7 9 -5 1 -33 24 -64 53 -31 29 -70 59 -85 67 -16 8 -31 17 -34
20 -16 18 -200 95 -200 84 0 -2 -8 0 -18 5 -21 11 -76 20 -164 25 -31 2 -61 7
-66 10 -5 3 -12 3 -15 -1z"/>
</g>
</svg>
